<svg xmlns="http://www.w3.org/2000/svg" width="17" height="18" fill="none" viewBox="0 0 17 18"><path fill="#52006a" d="m7.167 0 6.081 1.94c.17.054.318.162.423.309a.86.86 0 0 1 .162.504v1.502H15.5c.221 0 .433.09.59.25a.86.86 0 0 1 .244.602v1.702H5.5V5.106a.86.86 0 0 1 .244-.602.83.83 0 0 1 .59-.25h5.833v-.877L7.166 1.782l-5 1.596v6.3c0 .522.117 1.036.342 1.504s.552.876.956 1.194l.158.116 3.544 2.469 3.151-2.196H6.333a.83.83 0 0 1-.59-.25.86.86 0 0 1-.244-.602V8.51h10.833v3.404a.86.86 0 0 1-.244.602.83.83 0 0 1-.59.25h-2.681a5 5 0 0 1-1.167 1.132L7.167 17.02l-4.484-3.121a5.1 5.1 0 0 1-1.604-1.833A5.2 5.2 0 0 1 .5 9.68V2.753c.001-.182.058-.359.163-.505a.83.83 0 0 1 .423-.308Z"/></svg>